STARTFONT 2.1
FONT -Monotype-Nimrod-Bold-I-Normal--12-120-75-75-P-84-iso8859-5
SIZE 12 75 75
FONTBOUNDINGBOX 18 16 -2 -3

STARTPROPERTIES 24
FOUNDRY "Monotype"
FAMILY_NAME "Nimrod"
WEIGHT_NAME "Bold"
SLANT "I"
SETWIDTH_NAME "Normal"
ADD_STYLE_NAME ""
PIXEL_SIZE 12
POINT_SIZE 120
RESOLUTION_X 75
RESOLUTION_Y 75
SPACING "P"
AVERAGE_WIDTH 84
CHARSET_REGISTRY "iso8859"
CHARSET_ENCODING "5"
FACE_NAME "Nimrod Bold Inclined ISO Latin Cyrillic"
_DEC_DEVICE_FONTNAMES "PS=nimrod-bin-latcyrillic"
COPYRIGHT "Copyright (c) 1994 Monotype Typography Ltd."
CAP_HEIGHT 11
X_HEIGHT 8
WEIGHT 10
QUAD_WIDTH 9
DEFAULT_CHAR 160
FONT_DESCENT 3
FONT_ASCENT 13
ENDPROPERTIES

CHARS 191

STARTCHAR space
ENCODING 32
SWIDTH 250 0
DWIDTH 3 0
BBX 0 0 0 0
BITMAP
ENDCHAR

STARTCHAR exclam
ENCODING 33
SWIDTH 375 0
DWIDTH 5 0
BBX 4 10 1 0
BITMAP
30
30
30
60
60
60
40
00
C0
C0
ENDCHAR

STARTCHAR quotedbl
ENCODING 34
SWIDTH 552 0
DWIDTH 7 0
BBX 5 4 1 6
BITMAP
48
D8
D8
90
ENDCHAR

STARTCHAR numbersign
ENCODING 35
SWIDTH 667 0
DWIDTH 9 0
BBX 8 10 1 0
BITMAP
12
12
12
7F
24
24
FE
48
48
48
ENDCHAR

STARTCHAR dollar
ENCODING 36
SWIDTH 510 0
DWIDTH 7 0
BBX 8 12 0 -2
BITMAP
08
3E
6B
69
38
1C
1E
96
D6
7C
10
10
ENDCHAR

STARTCHAR percent
ENCODING 37
SWIDTH 1000 0
DWIDTH 13 0
BBX 10 10 2 0
BITMAP
3080
5900
DB00
D200
6400
0980
1AC0
16C0
2680
4300
ENDCHAR

STARTCHAR ampersand
ENCODING 38
SWIDTH 927 0
DWIDTH 12 0
BBX 10 10 1 0
BITMAP
0E00
1B00
1B00
1A00
3C00
6DC0
CC80
C700
E640
7B80
ENDCHAR

STARTCHAR quoteright
ENCODING 39
SWIDTH 323 0
DWIDTH 4 0
BBX 3 4 1 6
BITMAP
60
60
20
C0
ENDCHAR

STARTCHAR parenleft
ENCODING 40
SWIDTH 385 0
DWIDTH 5 0
BBX 6 12 0 -2
BITMAP
0C
10
30
60
60
C0
C0
C0
C0
C0
40
20
ENDCHAR

STARTCHAR parenright
ENCODING 41
SWIDTH 385 0
DWIDTH 5 0
BBX 6 12 -1 -2
BITMAP
10
08
0C
0C
0C
0C
0C
18
18
30
20
C0
ENDCHAR

STARTCHAR asterisk
ENCODING 42
SWIDTH 552 0
DWIDTH 7 0
BBX 6 5 1 5
BITMAP
10
18
7C
38
CC
ENDCHAR

STARTCHAR plus
ENCODING 43
SWIDTH 667 0
DWIDTH 9 0
BBX 7 7 1 1
BITMAP
10
10
10
FE
10
10
10
ENDCHAR

STARTCHAR comma
ENCODING 44
SWIDTH 323 0
DWIDTH 4 0
BBX 3 4 0 -2
BITMAP
60
60
20
C0
ENDCHAR

STARTCHAR minus
ENCODING 45
SWIDTH 667 0
DWIDTH 9 0
BBX 7 1 1 4
BITMAP
FE
ENDCHAR

STARTCHAR period
ENCODING 46
SWIDTH 323 0
DWIDTH 4 0
BBX 2 2 1 0
BITMAP
C0
C0
ENDCHAR

STARTCHAR slash
ENCODING 47
SWIDTH 552 0
DWIDTH 7 0
BBX 7 10 0 0
BITMAP
06
0C
08
18
10
30
20
60
40
C0
ENDCHAR

STARTCHAR zero
ENCODING 48
SWIDTH 562 0
DWIDTH 7 0
BBX 7 10 0 0
BITMAP
1C
36
66
66
66
CC
CC
CC
D8
70
ENDCHAR

STARTCHAR one
ENCODING 49
SWIDTH 562 0
DWIDTH 7 0
BBX 5 10 1 0
BITMAP
08
38
18
18
30
30
30
60
60
F0
ENDCHAR

STARTCHAR two
ENCODING 50
SWIDTH 562 0
DWIDTH 7 0
BBX 7 10 0 0
BITMAP
1C
26
36
16
04
08
10
24
7C
FC
ENDCHAR

STARTCHAR three
ENCODING 51
SWIDTH 562 0
DWIDTH 7 0
BBX 7 10 0 0
BITMAP
3C
66
26
04
18
0C
4C
CC
8C
78
ENDCHAR

STARTCHAR four
ENCODING 52
SWIDTH 562 0
DWIDTH 7 0
BBX 6 10 0 0
BITMAP
04
0C
1C
2C
4C
58
98
FC
18
3C
ENDCHAR

STARTCHAR five
ENCODING 53
SWIDTH 562 0
DWIDTH 7 0
BBX 7 10 0 0
BITMAP
1E
3C
20
20
78
5C
0C
4C
DC
78
ENDCHAR

STARTCHAR six
ENCODING 54
SWIDTH 562 0
DWIDTH 7 0
BBX 7 10 0 0
BITMAP
1C
36
62
60
DC
E6
C6
CC
CC
78
ENDCHAR

STARTCHAR seven
ENCODING 55
SWIDTH 562 0
DWIDTH 7 0
BBX 6 10 1 0
BITMAP
7C
FC
8C
18
30
30
60
60
C0
C0
ENDCHAR

STARTCHAR eight
ENCODING 56
SWIDTH 562 0
DWIDTH 7 0
BBX 7 10 0 0
BITMAP
3C
66
66
66
7C
CC
CC
CC
CC
78
ENDCHAR

STARTCHAR nine
ENCODING 57
SWIDTH 562 0
DWIDTH 7 0
BBX 7 10 0 0
BITMAP
3C
66
66
C6
CE
76
0C
8C
D8
70
ENDCHAR

STARTCHAR colon
ENCODING 58
SWIDTH 323 0
DWIDTH 4 0
BBX 3 7 1 0
BITMAP
60
60
00
00
00
C0
C0
ENDCHAR

STARTCHAR semicolon
ENCODING 59
SWIDTH 323 0
DWIDTH 4 0
BBX 4 9 0 -2
BITMAP
30
30
00
00
00
60
60
20
C0
ENDCHAR

STARTCHAR less
ENCODING 60
SWIDTH 667 0
DWIDTH 9 0
BBX 7 7 1 1
BITMAP
02
0C
30
C0
30
0C
02
ENDCHAR

STARTCHAR equal
ENCODING 61
SWIDTH 667 0
DWIDTH 9 0
BBX 7 3 1 3
BITMAP
FE
00
FE
ENDCHAR

STARTCHAR greater
ENCODING 62
SWIDTH 667 0
DWIDTH 9 0
BBX 7 7 1 1
BITMAP
80
60
18
06
18
60
80
ENDCHAR

STARTCHAR question
ENCODING 63
SWIDTH 458 0
DWIDTH 6 0
BBX 6 10 1 0
BITMAP
78
CC
8C
18
30
60
40
00
C0
C0
ENDCHAR

STARTCHAR at
ENCODING 64
SWIDTH 833 0
DWIDTH 11 0
BBX 11 12 0 -2
BITMAP
0F00
30C0
4020
4DA0
9B20
B320
B320
B6C0
5B20
4040
3180
0E00
ENDCHAR

STARTCHAR A
ENCODING 65
SWIDTH 802 0
DWIDTH 10 0
BBX 10 10 0 0
BITMAP
0300
0700
0B00
0B00
1300
1300
3F80
2180
4180
E3C0
ENDCHAR

STARTCHAR B
ENCODING 66
SWIDTH 802 0
DWIDTH 10 0
BBX 10 10 0 0
BITMAP
3F80
19C0
18C0
31C0
3F80
3300
3180
6180
6380
FF00
ENDCHAR

STARTCHAR C
ENCODING 67
SWIDTH 740 0
DWIDTH 10 0
BBX 9 10 1 0
BITMAP
0F00
3980
6100
6000
C000
C000
C000
C100
6200
3C00
ENDCHAR

STARTCHAR D
ENCODING 68
SWIDTH 854 0
DWIDTH 11 0
BBX 11 10 0 0
BITMAP
3F80
18C0
1860
3060
3060
3060
30C0
60C0
6180
FF00
ENDCHAR

STARTCHAR E
ENCODING 69
SWIDTH 740 0
DWIDTH 10 0
BBX 10 10 0 0
BITMAP
3FC0
18C0
1840
3200
3E00
3200
3080
6080
6180
FF80
ENDCHAR

STARTCHAR F
ENCODING 70
SWIDTH 729 0
DWIDTH 9 0
BBX 10 10 0 0
BITMAP
3FC0
18C0
1840
3200
3E00
3200
3000
6000
6000
F000
ENDCHAR

STARTCHAR G
ENCODING 71
SWIDTH 854 0
DWIDTH 11 0
BBX 10 10 1 0
BITMAP
0F80
38C0
6080
6000
C000
C3C0
C180
C180
6300
3E00
ENDCHAR

STARTCHAR H
ENCODING 72
SWIDTH 865 0
DWIDTH 11 0
BBX 12 10 0 0
BITMAP
3CF0
1860
1860
30C0
3FC0
30C0
30C0
6180
6180
F3C0
ENDCHAR

STARTCHAR I
ENCODING 73
SWIDTH 479 0
DWIDTH 6 0
BBX 6 10 0 0
BITMAP
3C
18
18
30
30
30
30
60
60
F0
ENDCHAR

STARTCHAR J
ENCODING 74
SWIDTH 656 0
DWIDTH 9 0
BBX 9 10 0 0
BITMAP
0780
0300
0300
0300
0600
0600
4600
CC00
8C00
7800
ENDCHAR

STARTCHAR K
ENCODING 75
SWIDTH 823 0
DWIDTH 11 0
BBX 11 10 0 0
BITMAP
3DE0
18C0
1880
3100
3600
3B00
3300
6180
6180
F3C0
ENDCHAR

STARTCHAR L
ENCODING 76
SWIDTH 698 0
DWIDTH 9 0
BBX 8 10 0 0
BITMAP
3C
18
18
30
30
30
31
61
63
FF
ENDCHAR

STARTCHAR M
ENCODING 77
SWIDTH 1031 0
DWIDTH 13 0
BBX 14 10 0 0
BITMAP
383C
1878
3858
2CB0
2CB0
2730
4730
4660
4460
E4F0
ENDCHAR

STARTCHAR N
ENCODING 78
SWIDTH 833 0
DWIDTH 11 0
BBX 12 10 0 0
BITMAP
3870
1C20
2C20
2620
2640
2640
4340
4340
4180
E180
ENDCHAR

STARTCHAR O
ENCODING 79
SWIDTH 823 0
DWIDTH 11 0
BBX 10 10 1 0
BITMAP
0F00
3980
60C0
60C0
C0C0
C0C0
C180
C180
6700
3C00
ENDCHAR

STARTCHAR P
ENCODING 80
SWIDTH 771 0
DWIDTH 10 0
BBX 10 10 0 0
BITMAP
3F80
19C0
18C0
30C0
3180
3F00
3000
6000
6000
F000
ENDCHAR

STARTCHAR Q
ENCODING 81
SWIDTH 823 0
DWIDTH 11 0
BBX 10 11 1 -1
BITMAP
0F00
3980
60C0
60C0
C0C0
D8C0
E580
C580
6700
3F00
01C0
ENDCHAR

STARTCHAR R
ENCODING 82
SWIDTH 823 0
DWIDTH 11 0
BBX 10 10 0 0
BITMAP
3F80
19C0
18C0
30C0
3180
3F00
3300
6300
6180
F1C0
ENDCHAR

STARTCHAR S
ENCODING 83
SWIDTH 667 0
DWIDTH 9 0
BBX 8 10 1 0
BITMAP
3E
63
62
70
38
1C
0E
46
C6
7C
ENDCHAR

STARTCHAR T
ENCODING 84
SWIDTH 750 0
DWIDTH 10 0
BBX 8 10 2 0
BITMAP
7F
DB
99
B1
30
30
30
60
60
F0
ENDCHAR

STARTCHAR U
ENCODING 85
SWIDTH 792 0
DWIDTH 10 0
BBX 10 10 1 0
BITMAP
79C0
3080
3080
6100
6100
6100
C200
C200
E400
7800
ENDCHAR

STARTCHAR V
ENCODING 86
SWIDTH 771 0
DWIDTH 10 0
BBX 10 10 1 0
BITMAP
F1C0
6080
6100
6100
6200
3200
3400
3400
3800
1000
ENDCHAR

STARTCHAR W
ENCODING 87
SWIDTH 1104 0
DWIDTH 14 0
BBX 13 10 1 0
BITMAP
F7B8
6310
6310
6720
6720
6B40
3BC0
3180
3180
2100
ENDCHAR

STARTCHAR X
ENCODING 88
SWIDTH 823 0
DWIDTH 11 0
BBX 10 10 1 0
BITMAP
79C0
3080
1900
1A00
0C00
0C00
1600
2600
4300
E780
ENDCHAR

STARTCHAR Y
ENCODING 89
SWIDTH 771 0
DWIDTH 10 0
BBX 10 10 1 0
BITMAP
F1C0
6080
6100
3200
3C00
1800
1800
3000
3000
7800
ENDCHAR

STARTCHAR Z
ENCODING 90
SWIDTH 719 0
DWIDTH 9 0
BBX 9 10 0 0
BITMAP
1F80
3180
2300
0600
0C00
1800
3000
6200
C600
FC00
ENDCHAR

STARTCHAR bracketleft
ENCODING 91
SWIDTH 396 0
DWIDTH 5 0
BBX 5 12 0 -2
BITMAP
38
30
30
30
60
60
60
60
C0
C0
C0
E0
ENDCHAR

STARTCHAR backslash
ENCODING 92
SWIDTH 552 0
DWIDTH 7 0
BBX 7 10 0 0
BITMAP
C0
40
60
20
30
10
18
08
0C
06
ENDCHAR

STARTCHAR bracketright
ENCODING 93
SWIDTH 396 0
DWIDTH 5 0
BBX 5 12 0 -2
BITMAP
38
18
18
18
30
30
30
30
60
60
60
E0
ENDCHAR

STARTCHAR asciicircum
ENCODING 94
SWIDTH 573 0
DWIDTH 7 0
BBX 5 4 1 6
BITMAP
20
70
50
88
ENDCHAR

STARTCHAR underscore
ENCODING 95
SWIDTH 500 0
DWIDTH 7 0
BBX 7 1 0 -3
BITMAP
FE
ENDCHAR

STARTCHAR quoteleft
ENCODING 96
SWIDTH 323 0
DWIDTH 4 0
BBX 3 4 1 6
BITMAP
60
80
C0
C0
ENDCHAR

STARTCHAR a
ENCODING 97
SWIDTH 667 0
DWIDTH 9 0
BBX 8 7 1 0
BITMAP
3B
66
66
CC
CC
DD
6E
ENDCHAR

STARTCHAR b
ENCODING 98
SWIDTH 635 0
DWIDTH 8 0
BBX 8 10 0 0
BITMAP
70
30
30
6E
73
63
63
C6
E6
B8
ENDCHAR

STARTCHAR c
ENCODING 99
SWIDTH 510 0
DWIDTH 7 0
BBX 7 7 0 0
BITMAP
3C
66
62
C0
C0
C4
78
ENDCHAR

STARTCHAR d
ENCODING 100
SWIDTH 667 0
DWIDTH 9 0
BBX 9 10 1 0
BITMAP
0380
0180
0180
1B00
6700
6300
C300
C600
CE80
7700
ENDCHAR

STARTCHAR e
ENCODING 101
SWIDTH 500 0
DWIDTH 7 0
BBX 7 7 0 0
BITMAP
3C
66
66
FC
C0
C4
78
ENDCHAR

STARTCHAR f
ENCODING 102
SWIDTH 406 0
DWIDTH 5 0
BBX 9 12 -2 -2
BITMAP
0380
0680
0C00
1E00
0C00
0C00
1800
1800
1800
1800
B000
E000
ENDCHAR

STARTCHAR g
ENCODING 103
SWIDTH 625 0
DWIDTH 7 0
BBX 9 9 -1 -2
BITMAP
1F80
3300
3300
1E00
3000
1C00
7E00
C600
7C00
ENDCHAR

STARTCHAR h
ENCODING 104
SWIDTH 677 0
DWIDTH 9 0
BBX 9 10 0 0
BITMAP
7000
3000
3000
6E00
7300
6300
6300
C600
C680
C700
ENDCHAR

STARTCHAR i
ENCODING 105
SWIDTH 396 0
DWIDTH 5 0
BBX 4 10 1 0
BITMAP
30
30
00
E0
60
60
C0
C0
D0
60
ENDCHAR

STARTCHAR j
ENCODING 106
SWIDTH 396 0
DWIDTH 5 0
BBX 8 12 -2 -2
BITMAP
03
03
00
0E
06
06
0C
0C
0C
18
D8
70
ENDCHAR

STARTCHAR k
ENCODING 107
SWIDTH 646 0
DWIDTH 8 0
BBX 8 10 0 0
BITMAP
70
30
30
66
6B
70
78
CC
CD
C6
ENDCHAR

STARTCHAR l
ENCODING 108
SWIDTH 396 0
DWIDTH 5 0
BBX 4 10 1 0
BITMAP
70
30
30
60
60
60
60
C0
D0
E0
ENDCHAR

STARTCHAR m
ENCODING 109
SWIDTH 948 0
DWIDTH 12 0
BBX 12 7 0 0
BITMAP
ECC0
7760
6660
6660
CCC0
CCD0
CCE0
ENDCHAR

STARTCHAR n
ENCODING 110
SWIDTH 677 0
DWIDTH 9 0
BBX 8 7 1 0
BITMAP
EC
76
66
66
CC
CD
CE
ENDCHAR

STARTCHAR o
ENCODING 111
SWIDTH 594 0
DWIDTH 8 0
BBX 7 7 1 0
BITMAP
1C
6E
C6
C6
C6
EC
70
ENDCHAR

STARTCHAR p
ENCODING 112
SWIDTH 646 0
DWIDTH 8 0
BBX 9 9 -1 -2
BITMAP
3B00
1D80
1980
3180
3180
3300
6E00
6000
F000
ENDCHAR

STARTCHAR q
ENCODING 113
SWIDTH 625 0
DWIDTH 9 0
BBX 8 9 1 -2
BITMAP
1B
67
63
C6
C6
CE
7C
0C
1E
ENDCHAR

STARTCHAR r
ENCODING 114
SWIDTH 552 0
DWIDTH 7 0
BBX 7 7 1 0
BITMAP
EC
76
60
60
C0
C0
C0
ENDCHAR

STARTCHAR s
ENCODING 115
SWIDTH 500 0
DWIDTH 7 0
BBX 7 7 0 0
BITMAP
3C
66
70
38
1C
CC
78
ENDCHAR

STARTCHAR t
ENCODING 116
SWIDTH 406 0
DWIDTH 5 0
BBX 5 10 1 0
BITMAP
20
20
60
F8
60
60
C0
C0
D0
60
ENDCHAR

STARTCHAR u
ENCODING 117
SWIDTH 677 0
DWIDTH 9 0
BBX 8 7 1 0
BITMAP
E6
66
66
CC
CC
DD
6E
ENDCHAR

STARTCHAR v
ENCODING 118
SWIDTH 562 0
DWIDTH 7 0
BBX 6 7 1 0
BITMAP
E8
6C
64
C4
C4
C8
70
ENDCHAR

STARTCHAR w
ENCODING 119
SWIDTH 865 0
DWIDTH 11 0
BBX 10 7 1 0
BITMAP
E680
66C0
6640
C440
CC40
CC80
7300
ENDCHAR

STARTCHAR x
ENCODING 120
SWIDTH 625 0
DWIDTH 8 0
BBX 8 7 0 0
BITMAP
33
56
18
18
18
6A
CC
ENDCHAR

STARTCHAR y
ENCODING 121
SWIDTH 552 0
DWIDTH 7 0
BBX 8 9 -1 -2
BITMAP
62
B3
31
19
1A
0C
08
D0
60
ENDCHAR

STARTCHAR z
ENCODING 122
SWIDTH 542 0
DWIDTH 7 0
BBX 7 7 0 0
BITMAP
32
6E
0C
10
60
EC
98
ENDCHAR

STARTCHAR braceleft
ENCODING 123
SWIDTH 396 0
DWIDTH 5 0
BBX 6 12 0 -2
BITMAP
0C
18
18
30
30
60
C0
60
60
60
60
30
ENDCHAR

STARTCHAR bar
ENCODING 124
SWIDTH 542 0
DWIDTH 7 0
BBX 2 11 3 0
BITMAP
C0
C0
C0
C0
C0
C0
C0
C0
C0
C0
C0
ENDCHAR

STARTCHAR braceright
ENCODING 125
SWIDTH 396 0
DWIDTH 5 0
BBX 6 12 0 -2
BITMAP
30
18
18
18
18
0C
18
30
30
60
60
C0
ENDCHAR

STARTCHAR asciitilde
ENCODING 126
SWIDTH 667 0
DWIDTH 9 0
BBX 7 2 1 3
BITMAP
72
9C
ENDCHAR

STARTCHAR space
ENCODING 160
SWIDTH 250 0
DWIDTH 4 0
BBX 0 0 0 0
BITMAP
ENDCHAR

STARTCHAR afii10023
ENCODING 161
SWIDTH 740 0
DWIDTH 10 0
BBX 10 13 0 0
BITMAP
1980
1980
0000
3FC0
18C0
1840
3200
3E00
3200
3080
6080
6180
FF80
ENDCHAR

STARTCHAR afii10051
ENCODING 162
SWIDTH 896 0
DWIDTH 11 0
BBX 11 10 0 0
BITMAP
7FC0
CCC0
8C40
1800
1BC0
1CE0
1860
3060
32C0
7980
ENDCHAR

STARTCHAR afii10052
ENCODING 163
SWIDTH 719 0
DWIDTH 9 0
BBX 10 13 0 0
BITMAP
0300
0600
0000
3FC0
18C0
1880
3000
3000
3000
3000
6000
6000
F000
ENDCHAR

STARTCHAR afii10053
ENCODING 164
SWIDTH 740 0
DWIDTH 10 0
BBX 9 10 1 0
BITMAP
0F80
3980
6080
6000
C000
FC00
C000
C100
6200
3C00
ENDCHAR

STARTCHAR afii10054
ENCODING 165
SWIDTH 667 0
DWIDTH 9 0
BBX 8 10 1 0
BITMAP
3E
63
62
70
38
1C
0E
46
C6
7C
ENDCHAR

STARTCHAR afii10055
ENCODING 166
SWIDTH 479 0
DWIDTH 6 0
BBX 6 10 0 0
BITMAP
3C
18
18
30
30
30
30
60
60
F0
ENDCHAR

STARTCHAR afii10056
ENCODING 167
SWIDTH 479 0
DWIDTH 6 0
BBX 7 13 0 0
BITMAP
66
66
00
3C
18
18
30
30
30
30
60
60
F0
ENDCHAR

STARTCHAR afii10057
ENCODING 168
SWIDTH 656 0
DWIDTH 9 0
BBX 9 10 0 0
BITMAP
0780
0300
0300
0300
0600
0600
4600
CC00
8C00
7800
ENDCHAR

STARTCHAR afii10058
ENCODING 169
SWIDTH 1219 0
DWIDTH 15 0
BBX 15 10 0 0
BITMAP
0FF0
0460
0460
04C0
08FC
08CE
48C6
D186
918C
63F8
ENDCHAR

STARTCHAR afii10059
ENCODING 170
SWIDTH 1198 0
DWIDTH 15 0
BBX 15 10 0 0
BITMAP
3CF0
1860
1860
30C0
3FFC
30CE
30C6
6186
618C
F3F8
ENDCHAR

STARTCHAR afii10060
ENCODING 171
SWIDTH 917 0
DWIDTH 11 0
BBX 11 10 0 0
BITMAP
7FC0
CCC0
8C40
1800
1BC0
1C60
1860
30C0
30C0
79E0
ENDCHAR

STARTCHAR afii10061
ENCODING 172
SWIDTH 833 0
DWIDTH 11 0
BBX 12 13 0 0
BITMAP
00C0
0180
0000
3C70
1890
1980
3100
3600
3B00
3300
6180
6180
F3C0
ENDCHAR

STARTCHAR hyphen
ENCODING 173
SWIDTH 323 0
DWIDTH 4 0
BBX 4 1 0 3
BITMAP
F0
ENDCHAR

STARTCHAR afii10062
ENCODING 174
SWIDTH 781 0
DWIDTH 10 0
BBX 10 13 1 0
BITMAP
1B00
0E00
0000
79C0
3080
3100
1900
1A00
0C00
0C00
9800
D000
6000
ENDCHAR

STARTCHAR afii10145
ENCODING 175
SWIDTH 865 0
DWIDTH 11 0
BBX 12 12 0 -2
BITMAP
3CF0
1860
1860
30C0
30C0
30C0
30C0
6180
6180
FFC0
0C00
0C00
ENDCHAR

STARTCHAR afii10017
ENCODING 176
SWIDTH 802 0
DWIDTH 10 0
BBX 10 10 0 0
BITMAP
0300
0700
0B00
0B00
1300
1300
3F80
2180
4180
E3C0
ENDCHAR

STARTCHAR afii10018
ENCODING 177
SWIDTH 802 0
DWIDTH 10 0
BBX 10 10 0 0
BITMAP
3FC0
18C0
1880
3000
3F00
3380
3180
6180
6300
FE00
ENDCHAR

STARTCHAR afii10019
ENCODING 178
SWIDTH 802 0
DWIDTH 10 0
BBX 10 10 0 0
BITMAP
3F80
19C0
18C0
31C0
3F80
3300
3180
6180
6380
FF00
ENDCHAR

STARTCHAR afii10020
ENCODING 179
SWIDTH 719 0
DWIDTH 9 0
BBX 10 10 0 0
BITMAP
3FC0
18C0
1880
3000
3000
3000
3000
6000
6000
F000
ENDCHAR

STARTCHAR afii10021
ENCODING 180
SWIDTH 813 0
DWIDTH 11 0
BBX 12 12 0 -2
BITMAP
1FF0
0860
0860
10C0
10C0
10C0
20C0
2180
6180
FFC0
C0C0
8080
ENDCHAR

STARTCHAR afii10022
ENCODING 181
SWIDTH 740 0
DWIDTH 10 0
BBX 10 10 0 0
BITMAP
3FC0
18C0
1840
3200
3E00
3200
3080
6080
6180
FF80
ENDCHAR

STARTCHAR afii10024
ENCODING 182
SWIDTH 1177 0
DWIDTH 15 0
BBX 17 10 -1 0
BITMAP
71E380
48C480
08CC00
0D8800
07F000
199800
319800
330C00
630C00
E79E00
ENDCHAR

STARTCHAR afii10025
ENCODING 183
SWIDTH 656 0
DWIDTH 9 0
BBX 9 10 0 0
BITMAP
3F00
3380
2180
0180
1F00
0600
0300
8300
4700
3E00
ENDCHAR

STARTCHAR afii10026
ENCODING 184
SWIDTH 865 0
DWIDTH 11 0
BBX 12 10 0 0
BITMAP
3CF0
18E0
1960
32C0
34C0
38C0
30C0
6180
6180
F3C0
ENDCHAR

STARTCHAR afii10027
ENCODING 185
SWIDTH 865 0
DWIDTH 11 0
BBX 12 13 0 0
BITMAP
0D80
0700
0000
3CF0
18E0
1960
32C0
34C0
38C0
30C0
6180
6180
F3C0
ENDCHAR

STARTCHAR afii10028
ENCODING 186
SWIDTH 844 0
DWIDTH 11 0
BBX 12 10 0 0
BITMAP
3C70
1890
1980
3100
3600
3B00
3300
6180
6180
F3C0
ENDCHAR

STARTCHAR afii10029
ENCODING 187
SWIDTH 865 0
DWIDTH 11 0
BBX 12 10 0 0
BITMAP
0FF0
0460
0460
04C0
08C0
08C0
48C0
D180
9180
63C0
ENDCHAR

STARTCHAR afii10030
ENCODING 188
SWIDTH 1031 0
DWIDTH 13 0
BBX 14 10 0 0
BITMAP
383C
1878
3858
2CB0
2CB0
2730
4730
4660
4460
E4F0
ENDCHAR

STARTCHAR afii10031
ENCODING 189
SWIDTH 865 0
DWIDTH 11 0
BBX 12 10 0 0
BITMAP
3CF0
1860
1860
30C0
3FC0
30C0
30C0
6180
6180
F3C0
ENDCHAR

STARTCHAR afii10032
ENCODING 190
SWIDTH 823 0
DWIDTH 11 0
BBX 10 10 1 0
BITMAP
0F00
3980
60C0
60C0
C0C0
C0C0
C180
C180
6700
3C00
ENDCHAR

STARTCHAR afii10033
ENCODING 191
SWIDTH 865 0
DWIDTH 11 0
BBX 12 10 0 0
BITMAP
3FF0
1860
1860
30C0
30C0
30C0
30C0
6180
6180
F3C0
ENDCHAR

STARTCHAR afii10034
ENCODING 192
SWIDTH 771 0
DWIDTH 10 0
BBX 10 10 0 0
BITMAP
3F80
19C0
18C0
30C0
3180
3F00
3000
6000
6000
F000
ENDCHAR

STARTCHAR afii10035
ENCODING 193
SWIDTH 740 0
DWIDTH 10 0
BBX 9 10 1 0
BITMAP
0F00
3980
6100
6000
C000
C000
C000
C100
6200
3C00
ENDCHAR

STARTCHAR afii10036
ENCODING 194
SWIDTH 750 0
DWIDTH 10 0
BBX 8 10 2 0
BITMAP
7F
DB
99
B1
30
30
30
60
60
F0
ENDCHAR

STARTCHAR afii10037
ENCODING 195
SWIDTH 781 0
DWIDTH 10 0
BBX 10 10 1 0
BITMAP
79C0
3080
3100
1900
1A00
0C00
0C00
9800
D000
6000
ENDCHAR

STARTCHAR afii10038
ENCODING 196
SWIDTH 990 0
DWIDTH 12 0
BBX 11 10 1 0
BITMAP
0F00
0600
3FC0
6660
C660
CC60
CCC0
7F80
0C00
1E00
ENDCHAR

STARTCHAR afii10039
ENCODING 197
SWIDTH 823 0
DWIDTH 11 0
BBX 10 10 1 0
BITMAP
79C0
3080
1900
1A00
0C00
0C00
1600
2600
4300
E780
ENDCHAR

STARTCHAR afii10040
ENCODING 198
SWIDTH 865 0
DWIDTH 11 0
BBX 12 12 0 -2
BITMAP
3CF0
1860
1860
30C0
30C0
30C0
30C0
6180
6180
FFC0
00C0
0080
ENDCHAR

STARTCHAR afii10041
ENCODING 199
SWIDTH 823 0
DWIDTH 10 0
BBX 9 10 1 0
BITMAP
F780
6300
6300
C600
CE00
7600
0600
0C00
0C00
1E00
ENDCHAR

STARTCHAR afii10042
ENCODING 200
SWIDTH 1240 0
DWIDTH 16 0
BBX 16 10 0 0
BITMAP
3DEF
18C6
18C6
318C
318C
318C
318C
6318
6318
FFFC
ENDCHAR

STARTCHAR afii10043
ENCODING 201
SWIDTH 1240 0
DWIDTH 16 0
BBX 16 12 0 -2
BITMAP
3DEF
18C6
18C6
318C
318C
318C
318C
6318
6318
FFFC
000C
0008
ENDCHAR

STARTCHAR afii10044
ENCODING 202
SWIDTH 938 0
DWIDTH 10 0
BBX 10 10 0 0
BITMAP
FE00
CC00
8C00
1800
1F80
19C0
18C0
30C0
3180
7F00
ENDCHAR

STARTCHAR afii10045
ENCODING 203
SWIDTH 1240 0
DWIDTH 16 0
BBX 16 10 0 0
BITMAP
3C0F
1806
1806
300C
3F0C
338C
318C
6198
6318
FE3C
ENDCHAR

STARTCHAR afii10046
ENCODING 204
SWIDTH 802 0
DWIDTH 9 0
BBX 9 10 0 0
BITMAP
3C00
1800
1800
3000
3F00
3380
3180
6180
6300
FE00
ENDCHAR

STARTCHAR afii10047
ENCODING 205
SWIDTH 740 0
DWIDTH 10 0
BBX 9 10 1 0
BITMAP
7E00
6300
4180
0180
0180
1F80
0300
8300
4E00
3800
ENDCHAR

STARTCHAR afii10048
ENCODING 206
SWIDTH 1135 0
DWIDTH 15 0
BBX 15 10 0 0
BITMAP
3C78
19CC
1B06
3306
3E06
3606
360C
660C
6338
F1E0
ENDCHAR

STARTCHAR afii10049
ENCODING 207
SWIDTH 844 0
DWIDTH 11 0
BBX 11 10 0 0
BITMAP
1FE0
38C0
30C0
3180
1980
3F80
3180
6300
6300
E780
ENDCHAR

STARTCHAR afii10065
ENCODING 208
SWIDTH 667 0
DWIDTH 9 0
BBX 8 7 1 0
BITMAP
3B
66
66
CC
CC
DD
6E
ENDCHAR

STARTCHAR afii10066
ENCODING 209
SWIDTH 594 0
DWIDTH 8 0
BBX 8 10 1 0
BITMAP
01
3F
60
5C
EE
C6
C6
C6
EC
70
ENDCHAR

STARTCHAR afii10067
ENCODING 210
SWIDTH 563 0
DWIDTH 8 0
BBX 7 7 1 0
BITMAP
1C
26
6C
F8
CC
CC
78
ENDCHAR

STARTCHAR afii10068
ENCODING 211
SWIDTH 500 0
DWIDTH 7 0
BBX 6 7 1 0
BITMAP
38
4C
1C
78
E0
C8
70
ENDCHAR

STARTCHAR afii10069
ENCODING 212
SWIDTH 594 0
DWIDTH 8 0
BBX 7 10 1 0
BITMAP
38
0C
06
1E
76
66
C6
C6
EC
78
ENDCHAR

STARTCHAR afii10070
ENCODING 213
SWIDTH 500 0
DWIDTH 7 0
BBX 7 7 0 0
BITMAP
3C
66
66
FC
C0
C4
78
ENDCHAR

STARTCHAR afii10072
ENCODING 214
SWIDTH 1146 0
DWIDTH 15 0
BBX 16 7 0 0
BITMAP
3C9E
46B3
06B1
07E0
8D60
CD62
793C
ENDCHAR

STARTCHAR afii10073
ENCODING 215
SWIDTH 542 0
DWIDTH 7 0
BBX 7 7 1 0
BITMAP
7C
46
0C
18
8C
CC
78
ENDCHAR

STARTCHAR afii10074
ENCODING 216
SWIDTH 677 0
DWIDTH 9 0
BBX 8 7 1 0
BITMAP
E6
66
66
CC
CC
DD
6E
ENDCHAR

STARTCHAR afii10075
ENCODING 217
SWIDTH 677 0
DWIDTH 9 0
BBX 8 10 1 0
BITMAP
6C
38
00
E6
66
66
CC
CC
DD
6E
ENDCHAR

STARTCHAR afii10076
ENCODING 218
SWIDTH 646 0
DWIDTH 8 0
BBX 8 7 0 0
BITMAP
E3
65
64
7C
D8
CC
CE
ENDCHAR

STARTCHAR afii10077
ENCODING 219
SWIDTH 708 0
DWIDTH 9 0
BBX 10 7 -1 0
BITMAP
07C0
0980
0980
0980
1300
D340
6180
ENDCHAR

STARTCHAR afii10078
ENCODING 220
SWIDTH 948 0
DWIDTH 12 0
BBX 13 7 -1 0
BITMAP
1C38
0C70
1EF0
16B0
1760
D668
6670
ENDCHAR

STARTCHAR afii10079
ENCODING 221
SWIDTH 688 0
DWIDTH 8 0
BBX 8 7 0 0
BITMAP
E6
66
66
7E
CC
CD
CE
ENDCHAR

STARTCHAR afii10080
ENCODING 222
SWIDTH 594 0
DWIDTH 8 0
BBX 7 7 1 0
BITMAP
1C
6E
C6
C6
C6
EC
70
ENDCHAR

STARTCHAR afii10081
ENCODING 223
SWIDTH 677 0
DWIDTH 9 0
BBX 8 7 1 0
BITMAP
EC
76
66
66
CC
CD
CE
ENDCHAR

STARTCHAR afii10082
ENCODING 224
SWIDTH 646 0
DWIDTH 8 0
BBX 9 9 -1 -2
BITMAP
3B00
1D80
1980
3180
3180
3300
6E00
6000
F000
ENDCHAR

STARTCHAR afii10083
ENCODING 225
SWIDTH 510 0
DWIDTH 7 0
BBX 7 7 0 0
BITMAP
3C
66
62
C0
C0
C4
78
ENDCHAR

STARTCHAR afii10084
ENCODING 226
SWIDTH 958 0
DWIDTH 12 0
BBX 12 7 0 0
BITMAP
ECC0
7760
6660
6660
CCC0
CCD0
CCE0
ENDCHAR

STARTCHAR afii10085
ENCODING 227
SWIDTH 531 0
DWIDTH 7 0
BBX 8 9 -1 -2
BITMAP
62
B3
31
19
1A
0C
08
D0
60
ENDCHAR

STARTCHAR afii10086
ENCODING 228
SWIDTH 833 0
DWIDTH 12 0
BBX 11 12 1 -2
BITMAP
01C0
0300
0300
3BC0
6760
6660
C660
CCC0
DEC0
6D80
0C00
3800
ENDCHAR

STARTCHAR afii10087
ENCODING 229
SWIDTH 615 0
DWIDTH 8 0
BBX 8 7 0 0
BITMAP
33
56
18
18
18
6A
CC
ENDCHAR

STARTCHAR afii10088
ENCODING 230
SWIDTH 677 0
DWIDTH 9 0
BBX 8 9 1 -2
BITMAP
E6
66
66
CC
CC
DD
6E
0C
18
ENDCHAR

STARTCHAR afii10089
ENCODING 231
SWIDTH 646 0
DWIDTH 8 0
BBX 7 7 1 0
BITMAP
E6
66
CC
7C
0C
1A
1C
ENDCHAR

STARTCHAR afii10090
ENCODING 232
SWIDTH 948 0
DWIDTH 12 0
BBX 12 7 1 0
BITMAP
E660
6660
6660
CCC0
CCC0
DDD0
6EE0
ENDCHAR

STARTCHAR afii10091
ENCODING 233
SWIDTH 948 0
DWIDTH 12 0
BBX 12 9 1 -2
BITMAP
E660
6660
6660
CCC0
CCC0
DDD0
6EE0
00C0
0180
ENDCHAR

STARTCHAR afii10092
ENCODING 234
SWIDTH 646 0
DWIDTH 7 0
BBX 7 7 0 0
BITMAP
78
98
1C
26
66
64
38
ENDCHAR

STARTCHAR afii10093
ENCODING 235
SWIDTH 917 0
DWIDTH 11 0
BBX 10 7 1 0
BITMAP
7380
3180
3980
4F00
CF00
CB40
7180
ENDCHAR

STARTCHAR afii10094
ENCODING 236
SWIDTH 604 0
DWIDTH 7 0
BBX 6 7 1 0
BITMAP
70
30
38
4C
CC
C8
70
ENDCHAR

STARTCHAR afii10095
ENCODING 237
SWIDTH 521 0
DWIDTH 7 0
BBX 7 7 0 0
BITMAP
3C
66
46
1E
0C
8C
78
ENDCHAR

STARTCHAR afii10096
ENCODING 238
SWIDTH 885 0
DWIDTH 11 0
BBX 11 7 0 0
BITMAP
E1C0
66E0
6C60
7C60
CC60
CEC0
C700
ENDCHAR

STARTCHAR afii10097
ENCODING 239
SWIDTH 667 0
DWIDTH 9 0
BBX 9 7 0 0
BITMAP
1F80
3300
3300
1F00
3600
6680
E700
ENDCHAR

STARTCHAR afii61352
ENCODING 240
SWIDTH 1115 0
DWIDTH 15 0
BBX 16 10 -1 0
BITMAP
1C0C
0E16
0E20
0B26
0B2B
135B
135A
11CC
D1C0
60DE
ENDCHAR

STARTCHAR afii10071
ENCODING 241
SWIDTH 500 0
DWIDTH 7 0
BBX 7 10 0 0
BITMAP
66
66
00
3C
66
66
FC
C0
C4
78
ENDCHAR

STARTCHAR afii10099
ENCODING 242
SWIDTH 635 0
DWIDTH 9 0
BBX 8 12 0 -2
BITMAP
30
7E
30
6E
73
63
63
C6
C6
C6
06
0C
ENDCHAR

STARTCHAR afii10100
ENCODING 243
SWIDTH 563 0
DWIDTH 7 0
BBX 8 10 0 0
BITMAP
06
0C
00
7F
33
31
30
60
60
F0
ENDCHAR

STARTCHAR afii10101
ENCODING 244
SWIDTH 510 0
DWIDTH 8 0
BBX 7 7 1 0
BITMAP
3C
66
62
F0
C0
C4
78
ENDCHAR

STARTCHAR afii10102
ENCODING 245
SWIDTH 500 0
DWIDTH 7 0
BBX 7 7 0 0
BITMAP
3C
66
70
38
1C
CC
78
ENDCHAR

STARTCHAR afii10103
ENCODING 246
SWIDTH 396 0
DWIDTH 5 0
BBX 4 10 1 0
BITMAP
30
30
00
E0
60
60
C0
C0
D0
60
ENDCHAR

STARTCHAR afii10104
ENCODING 247
SWIDTH 396 0
DWIDTH 5 0
BBX 6 10 1 0
BITMAP
CC
CC
00
E0
60
60
C0
C0
D0
60
ENDCHAR

STARTCHAR afii10105
ENCODING 248
SWIDTH 396 0
DWIDTH 5 0
BBX 8 12 -2 -2
BITMAP
03
03
00
0E
06
06
0C
0C
0C
18
D8
70
ENDCHAR

STARTCHAR afii10106
ENCODING 249
SWIDTH 969 0
DWIDTH 12 0
BBX 12 7 0 0
BITMAP
03C0
04C0
08E0
0930
1330
D320
61C0
ENDCHAR

STARTCHAR afii10107
ENCODING 250
SWIDTH 917 0
DWIDTH 10 0
BBX 10 7 0 0
BITMAP
E700
6300
6380
7CC0
CCC0
CC80
C700
ENDCHAR

STARTCHAR afii10108
ENCODING 251
SWIDTH 677 0
DWIDTH 9 0
BBX 9 10 0 0
BITMAP
3000
7E00
3000
6E00
7300
6300
6300
C600
C680
C700
ENDCHAR

STARTCHAR afii10109
ENCODING 252
SWIDTH 646 0
DWIDTH 8 0
BBX 8 10 0 0
BITMAP
0C
18
00
E3
65
64
7C
D8
CC
CE
ENDCHAR

STARTCHAR section
ENCODING 253
SWIDTH 552 0
DWIDTH 7 0
BBX 7 12 0 -2
BITMAP
1C
36
20
70
58
4C
64
34
1C
08
D8
70
ENDCHAR

STARTCHAR afii10110
ENCODING 254
SWIDTH 531 0
DWIDTH 7 0
BBX 8 12 -1 -2
BITMAP
36
1C
00
62
B3
31
19
1A
0C
08
D0
60
ENDCHAR

STARTCHAR afii10193
ENCODING 255
SWIDTH 677 0
DWIDTH 9 0
BBX 9 9 0 -2
BITMAP
7300
3300
3300
6600
6600
6E80
3700
6000
C000
ENDCHAR
ENDFONT
